<svg width="6" height="8" viewBox="0 0 6 8" fill="none" xmlns="http://www.w3.org/2000/svg">
<path d="M3.37499 6.095L4.73499 4.735C4.76932 4.69816 4.81072 4.66861 4.85672 4.64811C4.90272 4.62761 4.95237 4.61659 5.00272 4.6157C5.05308 4.61482 5.10309 4.62408 5.14978 4.64294C5.19648 4.6618 5.23889 4.68987 5.2745 4.72548C5.31011 4.76109 5.33819 4.80351 5.35705 4.8502C5.37591 4.8969 5.38517 4.94691 5.38428 4.99726C5.38339 5.04761 5.37237 5.09727 5.35188 5.14327C5.33138 5.18927 5.30183 5.23067 5.26499 5.265L3.26499 7.265C3.19467 7.33523 3.09936 7.37467 2.99999 7.37467C2.90061 7.37467 2.8053 7.33523 2.73499 7.265L0.734985 5.265C0.698142 5.23067 0.668591 5.18927 0.648095 5.14327C0.627599 5.09727 0.616578 5.04761 0.615689 4.99726C0.614801 4.94691 0.624063 4.8969 0.642924 4.8502C0.661784 4.80351 0.689857 4.76109 0.725466 4.72548C0.761075 4.68987 0.803492 4.6618 0.850186 4.64294C0.89688 4.62408 0.946895 4.61482 0.997246 4.6157C1.0476 4.61659 1.09725 4.62761 1.14325 4.64811C1.18925 4.66861 1.23065 4.69816 1.26499 4.735L2.62499 6.095V1.25C2.62499 1.15054 2.66449 1.05516 2.73482 0.984835C2.80515 0.914509 2.90053 0.875 2.99999 0.875C3.09944 0.875 3.19482 0.914509 3.26515 0.984835C3.33548 1.05516 3.37499 1.15054 3.37499 1.25V6.095Z" fill="#F7F7F7"/>
</svg>
