<svg width="12" height="12" viewBox="0 0 12 12" fill="none" xmlns="http://www.w3.org/2000/svg">
<path d="M4.26459 5.26491C4.23026 5.30176 4.18886 5.33131 4.14286 5.3518C4.09686 5.3723 4.0472 5.38332 3.99685 5.38421C3.9465 5.3851 3.89648 5.37584 3.84979 5.35698C3.8031 5.33811 3.76068 5.31004 3.72507 5.27443C3.68946 5.23882 3.66139 5.19641 3.64253 5.14971C3.62367 5.10302 3.6144 5.053 3.61529 5.00265C3.61618 4.9523 3.6272 4.90264 3.6477 4.85665C3.66819 4.81065 3.69774 4.76925 3.73459 4.73491L5.73459 2.73491C5.8049 2.66469 5.90021 2.62524 5.99959 2.62524C6.09896 2.62524 6.19428 2.66469 6.26459 2.73491L8.26459 4.73491C8.30143 4.76925 8.33098 4.81065 8.35148 4.85665C8.37197 4.90264 8.383 4.9523 8.38388 5.00265C8.38477 5.053 8.37551 5.10302 8.35665 5.14971C8.33779 5.19641 8.30972 5.23882 8.27411 5.27443C8.2385 5.31004 8.19608 5.33811 8.14939 5.35698C8.10269 5.37584 8.05268 5.3851 8.00233 5.38421C7.95198 5.38332 7.90232 5.3723 7.85632 5.3518C7.81032 5.33131 7.76892 5.30176 7.73459 5.26491L6.37459 3.90491V8.74991C6.37459 8.84937 6.33508 8.94475 6.26475 9.01508C6.19443 9.08541 6.09904 9.12491 5.99959 9.12491C5.90013 9.12491 5.80475 9.08541 5.73442 9.01508C5.6641 8.94475 5.62459 8.84937 5.62459 8.74991V3.90491L4.26459 5.26491Z" fill="#F7F7F7"/>
</svg>
