<svg width="104" height="104" viewBox="0 0 104 104" fill="none" xmlns="http://www.w3.org/2000/svg">
<g clip-path="url(#clip0_236_3520)">
<path fill-rule="evenodd" clip-rule="evenodd" d="M0 52C0 38.2087 5.47856 24.9823 15.2304 15.2304C24.9823 5.47856 38.2087 0 52 0C65.7913 0 79.0177 5.47856 88.7696 15.2304C98.5214 24.9823 104 38.2087 104 52C104 65.7913 98.5214 79.0177 88.7696 88.7696C79.0177 98.5214 65.7913 104 52 104C38.2087 104 24.9823 98.5214 15.2304 88.7696C5.47856 79.0177 0 65.7913 0 52ZM49.0325 74.256L78.9707 36.8299L73.5627 32.5035L48.0341 64.4037L29.952 49.3376L25.5147 54.6624L49.0325 74.256Z" fill="#37CB4F"/>
</g>
<defs>
<clipPath id="clip0_236_3520">
<rect width="104" height="104" fill="white"/>
</clipPath>
</defs>
</svg>
