<svg width="20" height="20" viewBox="0 0 20 20" fill="none" xmlns="http://www.w3.org/2000/svg">
<path fill-rule="evenodd" clip-rule="evenodd" d="M16.6666 11.6667C16.8086 11.6667 16.9482 11.6303 17.0722 11.5611C17.1962 11.4919 17.3004 11.3922 17.3751 11.2714C17.4497 11.1506 17.4922 11.0128 17.4986 10.8709C17.505 10.7291 17.4751 10.5879 17.4116 10.4609L15.9316 7.50008L17.4116 4.53925C17.4751 4.41223 17.505 4.2711 17.4986 4.12925C17.4922 3.9874 17.4497 3.84954 17.3751 3.72874C17.3004 3.60795 17.1962 3.50822 17.0722 3.43903C16.9482 3.36985 16.8086 3.33349 16.6666 3.33341H7.49992V2.50008C7.49992 2.27907 7.41212 2.06711 7.25584 1.91083C7.09956 1.75455 6.8876 1.66675 6.66659 1.66675C6.44557 1.66675 6.23361 1.75455 6.07733 1.91083C5.92105 2.06711 5.83325 2.27907 5.83325 2.50008V17.5001C5.83325 17.7211 5.92105 17.9331 6.07733 18.0893C6.23361 18.2456 6.44557 18.3334 6.66659 18.3334C6.8876 18.3334 7.09956 18.2456 7.25584 18.0893C7.41212 17.9331 7.49992 17.7211 7.49992 17.5001V11.6667H16.6666Z" fill="white"/>
</svg>
