<svg width="318" height="186" viewBox="0 0 318 186" fill="none" xmlns="http://www.w3.org/2000/svg">
<g clip-path="url(#clip0_2001_293)">
<path fill-rule="evenodd" clip-rule="evenodd" d="M9 0C4.02944 0 0 4.02944 0 9V150H123C123 169.882 139.118 186 159 186C178.882 186 195 169.882 195 150H318V9C318 4.02944 313.971 0 309 0H9Z" fill="#E2242E"/>
<path d="M-15 62.4548L48.375 -3.37498L91.5 -1.87498L-1.125 91.875L-15 62.4548Z" fill="white"/>
<path d="M8.96657 65.1756L3.12021 59.3292L5.32638 57.123C5.7563 56.6931 6.17774 56.3961 6.59069 56.2321C7.00364 56.068 7.41376 56.0482 7.82105 56.1727C8.234 56.2915 8.65544 56.5658 9.08536 56.9958C9.50963 57.42 9.78398 57.8641 9.90843 58.3279C10.0385 58.7862 9.98763 59.25 9.7557 59.7195L13.1583 60.9838L12.2673 61.8748L9.15324 60.6784L7.62589 62.2057L9.78115 64.361L8.96657 65.1756ZM6.93858 61.5184L8.33866 60.1183C8.61019 59.8468 8.77423 59.5809 8.8308 59.3207C8.89303 59.0549 8.8704 58.8003 8.76292 58.557C8.64978 58.3081 8.48008 58.0706 8.2538 57.8443C7.87479 57.4653 7.50144 57.2729 7.13375 57.2673C6.77171 57.256 6.40118 57.4398 6.02217 57.8188L4.63059 59.2104L6.93858 61.5184ZM15.7481 58.5637C15.3125 58.9993 14.8883 59.2652 14.4753 59.3614C14.0624 59.4462 13.6381 59.384 13.2025 59.1747C12.7669 58.9654 12.3059 58.6175 11.8194 58.131C11.2877 57.5993 10.9313 57.0958 10.7503 56.6206C10.5749 56.1398 10.5466 55.6872 10.6654 55.263C10.7842 54.8387 11.0331 54.4371 11.4121 54.0581C11.9948 53.4754 12.5916 53.1954 13.2025 53.218C13.8135 53.2293 14.4668 53.5829 15.1626 54.2787L15.6548 54.8557L12.9055 57.6049C13.3185 58.0065 13.7031 58.2385 14.0595 58.3007C14.4103 58.3573 14.7779 58.1932 15.1626 57.8086C15.3267 57.6445 15.502 57.4635 15.6887 57.2655C15.8754 57.0562 16.0592 56.8497 16.2402 56.6461C16.4213 56.4424 16.574 56.2671 16.6984 56.12L17.3094 56.697C17.1906 56.861 17.0435 57.0534 16.8682 57.274C16.6984 57.5003 16.5118 57.7265 16.3081 57.9528C16.1158 58.1791 15.9291 58.3827 15.7481 58.5637ZM12.32 57.0194L14.3226 55.0169C13.8417 54.5361 13.426 54.2787 13.0752 54.2447C12.7302 54.2051 12.3879 54.355 12.0485 54.6945C11.7148 55.0282 11.5592 55.3818 11.5818 55.7551C11.6045 56.1285 11.8505 56.5499 12.32 57.0194ZM20.133 54.1788C19.6748 54.637 19.242 54.9227 18.8348 55.0359C18.4218 55.1433 17.9947 55.0839 17.5535 54.8577C17.1122 54.6314 16.6201 54.2467 16.077 53.7037C15.5509 53.1776 15.1917 52.6996 14.9994 52.2697C14.8014 51.8341 14.7646 51.4126 14.8891 51.0053C15.0135 50.5981 15.2907 50.1794 15.7207 49.7495C15.8225 49.6477 15.9526 49.5346 16.111 49.4101C16.2694 49.2743 16.4334 49.1442 16.6031 49.0198C16.7785 48.8897 16.9284 48.7794 17.0528 48.6889L17.6723 49.3592C17.5648 49.4441 17.4403 49.5459 17.2989 49.6647C17.1575 49.7835 17.0246 49.8994 16.9001 50.0126C16.77 50.12 16.6653 50.2134 16.5862 50.2926C16.2807 50.5981 16.0912 50.8837 16.0176 51.1496C15.9498 51.4098 15.9865 51.6785 16.1279 51.9557C16.275 52.2272 16.5268 52.5412 16.8831 52.8976C17.2678 53.2822 17.6044 53.5622 17.8929 53.7376C18.1814 53.9017 18.4586 53.9526 18.7244 53.8903C18.9847 53.8225 19.276 53.6273 19.5984 53.3049C19.6776 53.2257 19.7738 53.1238 19.8869 52.9994C20.0001 52.8636 20.116 52.725 20.2348 52.5836C20.3593 52.4365 20.4668 52.3121 20.5573 52.2103L21.2276 52.8297C21.1314 52.9598 21.0155 53.1097 20.8797 53.2794C20.7553 53.4491 20.6251 53.6132 20.4894 53.7715C20.3593 53.9356 20.2405 54.0714 20.133 54.1788ZM23.9298 50.3821C23.4546 50.8573 23.002 51.1514 22.5721 51.2645C22.1365 51.372 21.6953 51.3155 21.2484 51.0948C20.8015 50.8742 20.3207 50.5065 19.8059 49.9918C19.3138 49.4996 18.9687 49.0357 18.7707 48.6002C18.5784 48.1589 18.5388 47.7234 18.6519 47.2934C18.7707 46.8579 19.0564 46.4138 19.5089 45.9612C19.9671 45.503 20.4112 45.2174 20.8411 45.1042C21.271 44.9911 21.7038 45.0335 22.1394 45.2315C22.5806 45.4238 23.0473 45.7661 23.5394 46.2582C24.0542 46.773 24.4219 47.2538 24.6425 47.7007C24.8688 48.142 24.9282 48.5804 24.8207 49.0159C24.7076 49.4459 24.4106 49.9012 23.9298 50.3821ZM23.2594 49.7117C23.5592 49.4119 23.7318 49.1319 23.777 48.8717C23.8223 48.6115 23.7544 48.34 23.5734 48.0571C23.3867 47.7686 23.1067 47.4377 22.7333 47.0643C22.3656 46.6966 22.0432 46.4364 21.766 46.2837C21.4832 46.1253 21.2173 46.0744 20.9684 46.131C20.7195 46.1875 20.4565 46.3544 20.1793 46.6316C19.9077 46.9031 19.7409 47.1662 19.6786 47.4207C19.6221 47.6696 19.673 47.9355 19.8314 48.2183C19.9841 48.4955 20.2443 48.818 20.612 49.1857C20.9854 49.559 21.3163 49.839 21.6048 50.0257C21.8876 50.2067 22.1563 50.2774 22.4109 50.2378C22.6711 50.1926 22.954 50.0172 23.2594 49.7117ZM26.6807 47.4614L22.4296 43.2103L23.2187 42.4212L23.5157 42.7181C23.5666 42.5088 23.6628 42.2486 23.8042 41.9375C23.9456 41.6151 24.1238 41.3464 24.3388 41.1314C24.616 40.8542 24.8734 40.6647 25.1109 40.5629C25.3485 40.4611 25.5974 40.4328 25.8576 40.478C25.9029 40.3083 25.9708 40.1103 26.0613 39.8841C26.1575 39.6521 26.2763 39.4202 26.4177 39.1883C26.5591 38.9563 26.7203 38.7499 26.9013 38.5688C27.2917 38.1785 27.6594 37.9466 28.0044 37.873C28.3551 37.7939 28.7257 37.8702 29.116 38.1022C29.5007 38.3284 29.9476 38.6961 30.4567 39.2052L32.6968 41.4454L31.9161 42.226L29.7269 40.0368C29.3762 39.6861 29.0764 39.4259 28.8275 39.2561C28.5786 39.0864 28.3467 39.0129 28.1317 39.0355C27.9224 39.0525 27.699 39.1798 27.4614 39.4174C27.2521 39.6267 27.0767 39.8643 26.9353 40.1301C26.7995 40.3903 26.7062 40.6081 26.6553 40.7835C26.8306 40.8797 27.0314 41.0296 27.2577 41.2332C27.484 41.4256 27.7074 41.632 27.9281 41.8526L30.1088 44.0334L29.3196 44.8225L27.1559 42.6587C26.7939 42.2967 26.4884 42.0308 26.2395 41.8611C25.9906 41.6801 25.7587 41.6009 25.5437 41.6235C25.3287 41.6462 25.1053 41.7734 24.8734 42.0054C24.6754 42.2034 24.5085 42.4325 24.3727 42.6927C24.2426 42.9472 24.1578 43.1566 24.1182 43.3206L27.4698 46.6723L26.6807 47.4614ZM33.7987 40.3434L29.5476 36.0923L30.3367 35.3031L30.6337 35.6001C30.6846 35.3908 30.7808 35.1306 30.9222 34.8195C31.0637 34.497 31.2418 34.2283 31.4568 34.0134C31.734 33.7362 31.9914 33.5467 32.229 33.4449C32.4666 33.343 32.7155 33.3148 32.9757 33.36C33.0209 33.1903 33.0888 32.9923 33.1793 32.766C33.2755 32.5341 33.3943 32.3022 33.5357 32.0702C33.6771 31.8383 33.8383 31.6318 34.0194 31.4508C34.4097 31.0605 34.7774 30.8286 35.1224 30.755C35.4732 30.6758 35.8437 30.7522 36.234 30.9841C36.6187 31.2104 37.0656 31.5781 37.5747 32.0872L39.8148 34.3273L39.0342 35.108L36.845 32.9188C36.4942 32.568 36.1944 32.3078 35.9455 32.1381C35.6966 31.9684 35.4647 31.8949 35.2497 31.9175C35.0404 31.9345 34.817 32.0618 34.5794 32.2993C34.3701 32.5086 34.1947 32.7462 34.0533 33.0121C33.9175 33.2723 33.8242 33.4901 33.7733 33.6655C33.9486 33.7616 34.1495 33.9115 34.3757 34.1152C34.602 34.3075 34.8255 34.514 35.0461 34.7346L37.2268 36.9153L36.4377 37.7045L34.2739 35.5407C33.9119 35.1787 33.6064 34.9128 33.3575 34.7431C33.1086 34.5621 32.8767 34.4829 32.6617 34.5055C32.4468 34.5281 32.2233 34.6554 31.9914 34.8874C31.7934 35.0853 31.6265 35.3144 31.4907 35.5747C31.3606 35.8292 31.2758 36.0385 31.2362 36.2026L34.5879 39.5543L33.7987 40.3434ZM42.5629 31.7489C42.1273 32.1845 41.7031 32.4504 41.2901 32.5465C40.8772 32.6314 40.4529 32.5692 40.0173 32.3599C39.5817 32.1506 39.1207 31.8027 38.6342 31.3162C38.1025 30.7844 37.7461 30.281 37.5651 29.8058C37.3897 29.325 37.3614 28.8724 37.4802 28.4482C37.599 28.0239 37.8479 27.6223 38.2269 27.2432C38.8096 26.6606 39.4064 26.3806 40.0173 26.4032C40.6283 26.4145 41.2816 26.7681 41.9774 27.4639L42.4696 28.0409L39.7203 30.7901C40.1333 31.1917 40.518 31.4237 40.8743 31.4859C41.2251 31.5425 41.5928 31.3784 41.9774 30.9937C42.1415 30.8297 42.3168 30.6487 42.5035 30.4507C42.6902 30.2414 42.874 30.0349 43.0551 29.8313C43.2361 29.6276 43.3888 29.4522 43.5133 29.3052L44.1242 29.8822C44.0054 30.0462 43.8583 30.2385 43.683 30.4592C43.5133 30.6854 43.3266 30.9117 43.1229 31.138C42.9306 31.3643 42.7439 31.5679 42.5629 31.7489ZM39.1349 30.2046L41.1374 28.2021C40.6566 27.7212 40.2408 27.4639 39.89 27.4299C39.545 27.3903 39.2027 27.5402 38.8633 27.8796C38.5296 28.2134 38.374 28.5669 38.3966 28.9403C38.4193 29.3137 38.6653 29.7351 39.1349 30.2046ZM45.2423 28.8999L40.9911 24.6487L41.7803 23.8596L42.0773 24.1566C42.1112 24.0095 42.1706 23.837 42.2555 23.639C42.3403 23.441 42.4421 23.243 42.5609 23.045C42.6741 22.8414 42.8042 22.666 42.9512 22.5189C43.3472 22.123 43.7206 21.891 44.0713 21.8231C44.4164 21.7496 44.7841 21.8288 45.1744 22.0607C45.5647 22.2813 46.0116 22.6434 46.5151 23.1468L48.7552 25.387L47.9576 26.1846L45.7599 23.9869C45.4091 23.6362 45.1093 23.3759 44.8604 23.2062C44.6115 23.0365 44.3824 22.9658 44.1731 22.9941C43.9582 23.0167 43.7319 23.1468 43.4943 23.3844C43.3642 23.5145 43.2426 23.6644 43.1294 23.8342C43.022 23.9982 42.9286 24.1651 42.8494 24.3348C42.7759 24.4988 42.7193 24.6403 42.6797 24.759L46.0314 28.1107L45.2423 28.8999ZM51.2922 23.0196C51.1168 23.195 50.9302 23.3421 50.7322 23.4609C50.5342 23.5797 50.3249 23.6589 50.1043 23.6985C49.8837 23.7267 49.6432 23.7069 49.383 23.6391C49.1285 23.5655 48.8513 23.4298 48.5515 23.2318C48.2517 23.0225 47.9236 22.7396 47.5672 22.3832C47.0694 21.8854 46.7158 21.4131 46.5065 20.9662C46.2916 20.5136 46.2322 20.0752 46.3283 19.651C46.4188 19.2211 46.6819 18.7883 47.1175 18.3527C47.2702 18.2 47.4597 18.0388 47.686 17.8691C47.9066 17.6937 48.0791 17.5608 48.2036 17.4703L46.3792 15.6459L47.1768 14.8483L53.2353 20.9068L52.4547 21.6874L52.1747 21.4244C52.1407 21.5602 52.0813 21.727 51.9965 21.925C51.9173 22.1174 51.8155 22.3097 51.691 22.502C51.5722 22.7 51.4393 22.8726 51.2922 23.0196ZM50.7492 22.1881C50.8849 22.0523 51.0065 21.9024 51.114 21.7384C51.2158 21.5686 51.3035 21.4018 51.3771 21.2377C51.4563 21.068 51.5157 20.9294 51.5553 20.8219L48.8654 18.1321C48.7919 18.183 48.6929 18.2594 48.5684 18.3612C48.4496 18.4574 48.3252 18.5592 48.1951 18.6667C48.0706 18.7685 47.9603 18.8675 47.8642 18.9637C47.5983 19.2295 47.4484 19.4982 47.4144 19.7698C47.3805 20.0413 47.4455 20.327 47.6096 20.6268C47.7793 20.9209 48.0339 21.2377 48.3733 21.5771C48.6901 21.8939 48.9672 22.1258 49.2048 22.2729C49.4424 22.42 49.6546 22.5077 49.8412 22.536C50.0336 22.5586 50.2033 22.536 50.3503 22.4681C50.4974 22.4002 50.6304 22.3069 50.7492 22.1881ZM56.02 18.2918C55.5845 18.7274 55.1602 18.9933 54.7472 19.0894C54.3343 19.1743 53.91 19.112 53.4745 18.9027C53.0389 18.6934 52.5778 18.3455 52.0914 17.8591C51.5596 17.3273 51.2032 16.8239 51.0222 16.3487C50.8468 15.8678 50.8186 15.4153 50.9374 14.991C51.0561 14.5668 51.305 14.1651 51.6841 13.7861C52.2667 13.2035 52.8635 12.9234 53.4745 12.9461C54.0854 12.9574 54.7388 13.3109 55.4346 14.0067L55.9267 14.5837L53.1775 17.333C53.5904 17.7346 53.9751 17.9665 54.3315 18.0288C54.6822 18.0853 55.0499 17.9213 55.4346 17.5366C55.5986 17.3726 55.774 17.1915 55.9606 16.9936C56.1473 16.7843 56.3312 16.5778 56.5122 16.3741C56.6932 16.1705 56.8459 15.9951 56.9704 15.848L57.5813 16.425C57.4625 16.5891 57.3155 16.7814 57.1401 17.002C56.9704 17.2283 56.7837 17.4546 56.5801 17.6809C56.3877 17.9071 56.2011 18.1108 56.02 18.2918ZM52.592 16.7475L54.5945 14.745C54.1137 14.2641 53.6979 14.0067 53.3472 13.9728C53.0021 13.9332 52.6599 14.0831 52.3205 14.4225C51.9867 14.7563 51.8311 15.1098 51.8538 15.4832C51.8764 15.8565 52.1225 16.278 52.592 16.7475ZM60.1504 14.1615C59.975 14.3368 59.7883 14.4839 59.5904 14.6027C59.3924 14.7215 59.1831 14.8007 58.9624 14.8403C58.7418 14.8686 58.5014 14.8488 58.2412 14.7809C57.9866 14.7073 57.7094 14.5716 57.4096 14.3736C57.1098 14.1643 56.7817 13.8814 56.4253 13.5251C55.9275 13.0273 55.574 12.5549 55.3647 12.108C55.1497 11.6555 55.0903 11.2171 55.1865 10.7928C55.277 10.3629 55.54 9.93013 55.9756 9.49456C56.1284 9.34182 56.3179 9.1806 56.5441 9.01089C56.7648 8.83553 56.9373 8.7026 57.0617 8.61209L55.2374 6.78775L56.035 5.99013L62.0935 12.0486L61.3129 12.8293L61.0328 12.5662C60.9989 12.702 60.9395 12.8689 60.8547 13.0669C60.7755 13.2592 60.6736 13.4515 60.5492 13.6439C60.4304 13.8418 60.2975 14.0144 60.1504 14.1615ZM59.6073 13.3299C59.7431 13.1941 59.8647 13.0442 59.9722 12.8802C60.074 12.7105 60.1617 12.5436 60.2352 12.3796C60.3144 12.2098 60.3738 12.0713 60.4134 11.9638L57.7236 9.27394C57.6501 9.32485 57.5511 9.40122 57.4266 9.50304C57.3078 9.59921 57.1834 9.70103 57.0533 9.80851C56.9288 9.91033 56.8185 10.0093 56.7223 10.1055C56.4565 10.3714 56.3065 10.6401 56.2726 10.9116C56.2387 11.1831 56.3037 11.4688 56.4678 11.7686C56.6375 12.0628 56.892 12.3796 57.2314 12.719C57.5482 13.0357 57.8254 13.2677 58.063 13.4148C58.3006 13.5618 58.5127 13.6495 58.6994 13.6778C58.8917 13.7004 59.0614 13.6778 59.2085 13.6099C59.3556 13.542 59.4885 13.4487 59.6073 13.3299Z" fill="#D7232C"/>
</g>
<defs>
<clipPath id="clip0_2001_293">
<rect width="318" height="186" fill="white"/>
</clipPath>
</defs>
</svg>
