<svg width="64" height="64" viewBox="0 0 64 64" fill="none" xmlns="http://www.w3.org/2000/svg">
<g id="fe:document">
<g id="feDocument0">
<g id="feDocument1">
<path id="feDocument2" d="M40 10.6667H16V53.3334H48V18.6667H40V10.6667ZM16 5.33337H42.6667L53.3333 16V53.3334C53.3333 54.7479 52.7714 56.1044 51.7712 57.1046C50.771 58.1048 49.4145 58.6667 48 58.6667H16C14.5855 58.6667 13.2289 58.1048 12.2288 57.1046C11.2286 56.1044 10.6667 54.7479 10.6667 53.3334V10.6667C10.6667 9.25222 11.2286 7.89566 12.2288 6.89547C13.2289 5.89528 14.5855 5.33337 16 5.33337ZM21.3333 29.3334H42.6667V34.6667H21.3333V29.3334ZM21.3333 40H42.6667V45.3334H21.3333V40Z" fill="#004D72"/>
</g>
</g>
</g>
</svg>
