<svg width="17" height="17" viewBox="0 0 17 17" fill="none" xmlns="http://www.w3.org/2000/svg">
<g clip-path="url(#clip0_11329_15252)">
<path d="M0.768113 11.1713C0.957531 10.7136 1.20276 10.5487 1.69482 10.5485H3.06063C3.2377 10.5336 3.41488 10.5757 3.56636 10.6686C3.71784 10.7615 3.83569 10.9003 3.90272 11.0649C3.9385 11.1472 3.97963 11.1604 4.05744 11.1254C4.24131 11.0427 4.43305 10.9764 4.61192 10.8842C5.26043 10.5596 6.00266 10.474 6.70803 10.6426C7.29453 10.761 7.88855 10.8381 8.47773 10.9331C8.51243 10.8866 8.47773 10.8583 8.46145 10.8304C7.91133 9.85512 7.75852 8.70525 8.03486 7.62014C8.28409 6.47262 8.80779 5.40262 9.56111 4.50181C9.62657 4.42329 9.62586 4.38466 9.54501 4.31901C9.40908 4.22075 9.30899 4.08073 9.26 3.92031C9.21102 3.75989 9.21582 3.58785 9.27367 3.43041C9.31968 3.26907 9.41742 3.12731 9.55186 3.02693C9.6863 2.92656 9.84999 2.87313 10.0178 2.87486C10.1349 2.86877 10.143 2.8212 10.1113 2.72622C10.0061 2.40713 9.90525 2.08642 9.80348 1.76607C9.69246 1.41597 9.81331 1.18452 10.166 1.07172C10.6092 0.929165 11.0665 0.834775 11.5299 0.790186C11.5551 0.78575 11.58 0.779165 11.6041 0.770508H12.7211C12.7453 0.779146 12.7701 0.785731 12.7953 0.790186C13.2536 0.834683 13.7057 0.92792 14.1442 1.06832C14.5083 1.18315 14.6271 1.40584 14.5155 1.77001C14.4152 2.09614 14.3112 2.42119 14.2035 2.74518C14.1719 2.84069 14.1907 2.87038 14.2949 2.87521C14.4617 2.87638 14.6238 2.92981 14.7586 3.02796C14.8933 3.12611 14.9939 3.26405 15.0462 3.42236C15.1029 3.58228 15.1065 3.75621 15.0566 3.91837C15.0067 4.08053 14.9058 4.22228 14.7689 4.32259C14.692 4.38591 14.6935 4.42293 14.755 4.49358C15.0423 4.82678 15.2941 5.18903 15.5062 5.57446C16.0278 6.47261 16.3375 7.47797 16.4116 8.51393C16.4518 9.19379 16.3207 9.87286 16.0305 10.489C15.9977 10.5605 15.9469 10.6186 16.077 10.6582C16.2314 10.6982 16.3702 10.784 16.4751 10.9042C16.58 11.0245 16.6461 11.1736 16.6647 11.3321C16.6926 11.4941 16.6727 11.6607 16.6076 11.8116C16.5425 11.9625 16.435 12.0912 16.2981 12.1821C14.4379 13.5822 12.5793 14.9841 10.7225 16.3877C10.5515 16.5235 10.3503 16.616 10.136 16.6574C9.92161 16.6989 9.70043 16.688 9.49117 16.6258C8.30816 16.3073 7.12533 15.9879 5.94267 15.6676C5.33871 15.5045 4.73486 15.3413 4.13113 15.1779C4.05136 15.1563 3.9773 15.1221 3.93849 15.2494C3.89633 15.4442 3.78481 15.6171 3.62469 15.7357C3.46457 15.8544 3.26676 15.9108 3.06814 15.8944C2.62312 15.896 2.17792 15.8846 1.73344 15.8976C1.27269 15.9112 0.943402 15.7349 0.767578 15.3001L0.768113 11.1713ZM12.1552 4.50253C11.6224 4.50253 11.0893 4.51093 10.5567 4.49788C10.4753 4.49368 10.3941 4.5094 10.3202 4.54368C10.2462 4.57797 10.1818 4.62978 10.1324 4.69462C9.32595 5.59986 8.7807 6.70728 8.55499 7.89845C8.43643 8.42526 8.43471 8.97165 8.54994 9.49919C8.66517 10.0267 8.89455 10.5226 9.22198 10.952C9.25024 10.9917 9.28642 11.0251 9.32822 11.0501C9.37003 11.0751 9.41656 11.0912 9.46488 11.0973C10.3272 11.2343 11.1886 11.3779 12.052 11.5087C12.4131 11.5623 12.7231 11.6782 12.8935 12.0311C12.9447 12.137 13.0134 12.0758 13.0735 12.042C13.7315 11.6715 14.3892 11.3006 15.0467 10.9293C15.1327 10.8816 15.2053 10.8131 15.258 10.7301C15.527 10.3167 15.7107 9.85384 15.7984 9.36854C15.886 8.88324 15.8758 8.38532 15.7684 7.904C15.5413 6.68039 14.9716 5.54636 14.1256 4.63364C14.09 4.59031 14.045 4.55579 13.9939 4.53276C13.9428 4.50974 13.8871 4.49884 13.8312 4.50092C13.2727 4.50539 12.7138 4.50253 12.1552 4.50253ZM9.60189 12.682H11.9765C12.0282 12.684 12.0799 12.6825 12.1314 12.6775C12.2021 12.6736 12.2688 12.6436 12.3186 12.5934C12.3685 12.5431 12.3979 12.4762 12.4013 12.4055C12.4073 12.3349 12.3858 12.2647 12.3414 12.2095C12.2969 12.1542 12.233 12.1182 12.1627 12.1089C12.0017 12.0732 11.8377 12.0483 11.6746 12.022C9.9607 11.7457 8.24592 11.4747 6.53328 11.191C6.06108 11.1128 5.59944 11.0765 5.14727 11.2711C4.8051 11.4182 4.46561 11.5713 4.12093 11.712C4.0718 11.726 4.02932 11.7572 4.00125 11.7999C3.97318 11.8426 3.96138 11.8939 3.96801 11.9446C3.97302 12.7103 3.97034 13.4758 3.97069 14.2415C3.97069 14.5479 3.97069 14.5481 4.26957 14.629C6.04629 15.1099 7.82254 15.5913 9.59831 16.0733C9.73652 16.1165 9.88327 16.1249 10.0255 16.0977C10.1677 16.0705 10.301 16.0086 10.4136 15.9175C12.2369 14.5379 14.062 13.1606 15.8888 11.7857C16.1034 11.6237 16.163 11.4554 16.0596 11.3062C15.9532 11.1527 15.8039 11.1463 15.5644 11.2817C14.709 11.7656 13.8534 12.2489 12.9975 12.7317C12.9156 12.7755 12.8442 12.8366 12.7882 12.9106C12.7225 13.0008 12.6384 13.0761 12.5415 13.1314C12.4445 13.1866 12.3369 13.2206 12.2258 13.2311C12.138 13.2396 12.0527 13.266 11.9754 13.3086C11.4671 13.5969 10.9559 13.8809 10.4492 14.1716C10.3106 14.2594 10.1492 14.3043 9.98519 14.3007C9.82118 14.297 9.66193 14.2448 9.52748 14.1509C9.10715 13.8865 8.68306 13.6282 8.2638 13.3621C8.14776 13.2845 8.01071 13.2445 7.87119 13.2474C7.62328 13.2515 7.37503 13.2404 7.12694 13.2315C7.09059 13.233 7.05431 13.2272 7.02026 13.2144C6.98622 13.2015 6.95511 13.1819 6.92883 13.1568C6.90255 13.1316 6.88163 13.1014 6.86732 13.068C6.85302 13.0345 6.84563 12.9985 6.84559 12.9621C6.84483 12.9245 6.85182 12.8872 6.86612 12.8524C6.88043 12.8176 6.90175 12.7861 6.92874 12.7599C6.95574 12.7337 6.98784 12.7134 7.02305 12.7001C7.05825 12.6869 7.09581 12.681 7.13337 12.6829C7.17469 12.6809 7.21601 12.6829 7.25751 12.6829L9.60189 12.682ZM3.3985 13.2365C3.3985 12.6368 3.39939 12.037 3.3985 11.4371C3.3985 11.2096 3.30656 11.1196 3.07654 11.1191C2.59576 11.1178 2.11491 11.1178 1.634 11.1191C1.4072 11.1191 1.31204 11.2085 1.31061 11.4389C1.30751 12.6281 1.30751 13.8173 1.31061 15.0065C1.31061 15.2358 1.40827 15.3221 1.63686 15.3226C2.1124 15.3236 2.58807 15.3236 3.06385 15.3226C3.31748 15.3226 3.39797 15.2419 3.39832 14.9892C3.39904 14.405 3.39916 13.8208 3.39868 13.2365H3.3985ZM12.1629 2.87289C12.582 2.87289 13.0012 2.86949 13.4201 2.87521C13.4426 2.87897 13.4657 2.87825 13.4879 2.87309C13.5102 2.86793 13.5312 2.85843 13.5497 2.84513C13.5683 2.83184 13.584 2.81502 13.5961 2.79563C13.6081 2.77623 13.6162 2.75465 13.6199 2.73212C13.717 2.40498 13.8192 2.07909 13.929 1.75606C13.9691 1.638 13.9392 1.59042 13.8217 1.55769C12.7265 1.24323 11.5645 1.24609 10.4708 1.56592C10.3565 1.59883 10.3546 1.64892 10.3866 1.74479C10.495 2.06836 10.6021 2.39263 10.6973 2.72031C10.7014 2.7453 10.7104 2.7692 10.7239 2.79061C10.7375 2.81203 10.7551 2.83051 10.7759 2.84497C10.7967 2.85943 10.8202 2.86957 10.8449 2.8748C10.8697 2.88002 10.8953 2.88022 10.9201 2.87539C11.3344 2.86895 11.7483 2.87289 12.1622 2.87289H12.1629ZM12.1784 3.44526C11.4748 3.44526 10.7711 3.44382 10.0678 3.44615C9.89755 3.44615 9.80634 3.53558 9.80527 3.68511C9.80293 3.71906 9.80817 3.7531 9.8206 3.78478C9.83304 3.81645 9.85235 3.84496 9.87715 3.86826C9.90196 3.89155 9.93162 3.90905 9.96401 3.91948C9.9964 3.9299 10.0307 3.933 10.0644 3.92855C11.4615 3.93057 12.8585 3.93123 14.2554 3.93052C14.3048 3.93491 14.3544 3.92407 14.3975 3.89945C14.4406 3.87483 14.4751 3.8376 14.4964 3.79279C14.5826 3.61392 14.4636 3.44704 14.2434 3.44615C13.5541 3.44311 12.866 3.44454 12.1777 3.44436L12.1784 3.44526ZM9.21161 13.259L9.20052 13.2848C9.44073 13.4304 9.68041 13.5767 9.92152 13.7209C9.94154 13.7335 9.96436 13.7409 9.98796 13.7425C10.0116 13.7442 10.0352 13.7399 10.0568 13.7302C10.3306 13.5851 10.6021 13.4354 10.8743 13.2871L10.8599 13.259H9.21161Z" fill="black" stroke="black" stroke-width="0.0894324"/>
<path d="M11.8743 8.92047C11.8743 8.74464 11.8636 8.56792 11.8777 8.39335C11.8839 8.36266 11.8839 8.33104 11.8778 8.30034C11.8716 8.26963 11.8594 8.24047 11.8418 8.21455C11.8242 8.18863 11.8017 8.16648 11.7754 8.14939C11.7492 8.1323 11.7198 8.12063 11.689 8.11504C11.5073 8.04905 11.3422 7.94418 11.2052 7.80776C11.0682 7.67133 10.9627 7.50663 10.896 7.32519C10.8293 7.14374 10.803 6.94991 10.819 6.75725C10.835 6.56459 10.8929 6.37774 10.9886 6.20977C11.1445 5.91851 11.4074 5.69918 11.7219 5.59805C11.7642 5.5885 11.8033 5.56836 11.8356 5.53951C11.868 5.51065 11.8924 5.47405 11.9067 5.43314C11.9243 5.38094 11.9587 5.33602 12.0044 5.30534C12.0502 5.27465 12.1048 5.2599 12.1598 5.26339C12.2148 5.25925 12.2697 5.27364 12.3156 5.30427C12.3615 5.3349 12.3959 5.38001 12.4132 5.43242C12.4287 5.47548 12.4552 5.51377 12.49 5.54353C12.5247 5.57329 12.5667 5.5935 12.6116 5.60217C12.8588 5.69145 13.0746 5.85072 13.2328 6.06055C13.3911 6.27039 13.4848 6.52173 13.5027 6.78393C13.5102 6.82469 13.5093 6.86655 13.5 6.90695C13.4908 6.94736 13.4735 6.98546 13.449 7.01893C13.4246 7.0524 13.3936 7.08055 13.3579 7.10165C13.3222 7.12275 13.2827 7.13636 13.2415 7.14166C13.0723 7.15346 12.947 7.02987 12.9334 6.82685C12.9289 6.69958 12.8923 6.5755 12.827 6.46619C12.7617 6.35688 12.6697 6.26589 12.5597 6.20172C12.4841 6.15486 12.4472 6.16505 12.4474 6.26128C12.4485 6.69575 12.4503 7.13003 12.4463 7.56449C12.4452 7.67181 12.5179 7.68683 12.591 7.71313C12.8502 7.80045 13.0765 7.96479 13.2397 8.18418C13.4029 8.40357 13.4953 8.66756 13.5045 8.94086C13.5131 9.22497 13.4311 9.50445 13.2703 9.73884C13.1095 9.97323 12.8783 10.1504 12.6102 10.2446C12.5655 10.2544 12.5241 10.2753 12.4897 10.3054C12.4553 10.3355 12.4291 10.3738 12.4134 10.4167C12.3955 10.4689 12.3608 10.5138 12.3148 10.5444C12.2688 10.575 12.214 10.5895 12.1589 10.5859C12.1038 10.5884 12.0493 10.5729 12.0037 10.5418C11.9582 10.5107 11.9239 10.4657 11.9061 10.4135C11.8916 10.3729 11.8673 10.3365 11.8353 10.3076C11.8033 10.2787 11.7646 10.2582 11.7228 10.2478C11.4857 10.1685 11.2759 10.0236 11.1176 9.83005C10.9594 9.63647 10.8591 9.40204 10.8285 9.15389C10.8171 9.08758 10.8156 9.01995 10.824 8.9532C10.8278 8.8903 10.8543 8.83092 10.8987 8.78618C10.9431 8.74144 11.0022 8.7144 11.0651 8.71012C11.1297 8.69906 11.1961 8.71247 11.2514 8.74772C11.3067 8.78297 11.3468 8.83754 11.364 8.90079C11.379 8.96084 11.3889 9.02205 11.3935 9.08377C11.4066 9.19724 11.4456 9.30619 11.5073 9.4023C11.569 9.4984 11.6519 9.57912 11.7496 9.63825C11.8332 9.69191 11.879 9.69084 11.8764 9.57153C11.8709 9.35493 11.8741 9.13761 11.8743 8.92047ZM11.8743 6.88749C11.8743 6.68644 11.8714 6.48558 11.8754 6.28453C11.8775 6.16756 11.8437 6.14842 11.7427 6.20959C11.6324 6.28168 11.5422 6.38047 11.4804 6.49679C11.4186 6.61311 11.3872 6.74317 11.3891 6.87488C11.3911 7.00659 11.4263 7.13566 11.4915 7.25011C11.5567 7.36455 11.6498 7.46064 11.7622 7.52943C11.8573 7.58309 11.8766 7.5534 11.8752 7.4595C11.8731 7.26883 11.8745 7.07816 11.8743 6.88749ZM12.4467 8.98021C12.4467 9.17696 12.4494 9.3721 12.4456 9.56796C12.4435 9.67385 12.4724 9.69853 12.569 9.64183C12.6793 9.57174 12.7703 9.47505 12.8335 9.36065C12.8967 9.24624 12.9301 9.11779 12.9307 8.9871C12.9313 8.8564 12.899 8.72766 12.8368 8.61269C12.7747 8.49772 12.6846 8.40021 12.5749 8.32914C12.4697 8.26475 12.4427 8.29641 12.4452 8.40784C12.4499 8.59744 12.4468 8.78882 12.447 8.97967L12.4467 8.98021Z" fill="black" stroke="black" stroke-width="0.0894324"/>
<path d="M2.35125 14.2697C2.44909 14.2697 2.548 14.263 2.64477 14.2713C2.71251 14.2755 2.77628 14.3047 2.82383 14.3531C2.87138 14.4016 2.89934 14.4659 2.90234 14.5337C2.90765 14.5988 2.88865 14.6635 2.84901 14.7154C2.80936 14.7673 2.75189 14.8027 2.6877 14.8147C2.46956 14.8559 2.24564 14.8559 2.02751 14.8147C1.96077 14.8012 1.90176 14.7625 1.86265 14.7068C1.82354 14.6511 1.80733 14.5824 1.81734 14.5151C1.82318 14.4501 1.8524 14.3895 1.89957 14.3444C1.94675 14.2994 2.00867 14.273 2.07383 14.2702C2.16595 14.263 2.25931 14.2688 2.35196 14.2688L2.35125 14.2697Z" fill="black" stroke="black" stroke-width="0.0894324"/>
<path d="M2.34606 12.1729C2.25305 12.1729 2.15932 12.179 2.06703 12.1715C2.00238 12.1659 1.94182 12.1376 1.8961 12.0915C1.85037 12.0455 1.82245 11.9847 1.81728 11.92C1.81211 11.8553 1.83004 11.7909 1.86787 11.7382C1.9057 11.6855 1.96099 11.6479 2.02393 11.6321C2.2477 11.5866 2.47841 11.5875 2.70182 11.6347C2.76388 11.6479 2.81879 11.6837 2.85578 11.7352C2.89278 11.7868 2.90919 11.8502 2.9018 11.9132C2.89854 11.9786 2.87197 12.0406 2.82692 12.0881C2.78187 12.1355 2.7213 12.1652 2.65621 12.1719C2.64595 12.1732 2.63562 12.1739 2.62527 12.1738H2.34606V12.1729Z" fill="black" stroke="black" stroke-width="0.0894324"/>
</g>
<defs>
<clipPath id="clip0_11329_15252">
<rect width="15.9993" height="16" fill="white" transform="translate(0.724609 0.726562)"/>
</clipPath>
</defs>
</svg>
