<svg width="12" height="12" viewBox="0 0 12 12" fill="none" xmlns="http://www.w3.org/2000/svg">
<path d="M10.3903 6.26528L7.01531 9.64028C6.94495 9.71064 6.84951 9.75017 6.75 9.75017C6.65049 9.75017 6.55505 9.71064 6.48469 9.64028C6.41432 9.56991 6.37479 9.47448 6.37479 9.37496C6.37479 9.27545 6.41432 9.18002 6.48469 9.10965L9.21984 6.37496H1.875C1.77554 6.37496 1.68016 6.33546 1.60984 6.26513C1.53951 6.1948 1.5 6.09942 1.5 5.99996C1.5 5.90051 1.53951 5.80513 1.60984 5.7348C1.68016 5.66447 1.77554 5.62496 1.875 5.62496H9.21984L6.48469 2.89028C6.41432 2.81991 6.37479 2.72448 6.37479 2.62496C6.37479 2.52545 6.41432 2.43002 6.48469 2.35965C6.55505 2.28929 6.65049 2.24976 6.75 2.24976C6.84951 2.24976 6.94495 2.28929 7.01531 2.35965L10.3903 5.73465C10.4252 5.76948 10.4528 5.81084 10.4717 5.85636C10.4906 5.90189 10.5003 5.95068 10.5003 5.99996C10.5003 6.04925 10.4906 6.09804 10.4717 6.14357C10.4528 6.18909 10.4252 6.23045 10.3903 6.26528Z" fill="white"/>
</svg>
