<svg width="20" height="20" viewBox="0 0 20 20" fill="none" xmlns="http://www.w3.org/2000/svg">
<path d="M9.16658 13.3334C9.16658 13.8334 8.83325 14.1667 8.33325 14.1667C7.83325 14.1667 7.49992 13.8334 7.49992 13.3334C7.49992 12.8334 7.83325 12.5001 8.33325 12.5001C8.83325 12.5001 9.16658 12.8334 9.16658 13.3334ZM16.6666 6.66675V16.6667C16.6666 17.5834 15.9166 18.3334 14.9999 18.3334H4.99992C4.08325 18.3334 3.33325 17.5834 3.33325 16.6667V3.33341C3.33325 2.41675 4.08325 1.66675 4.99992 1.66675H11.6666M14.9999 12.5001H10.6666C10.1666 11.1667 8.74992 10.5001 7.49992 11.0001C6.16659 11.5001 5.49992 12.9167 5.99992 14.1667C6.49992 15.4167 7.91658 16.1667 9.16658 15.6667C9.91658 15.4167 10.4166 14.8334 10.6666 14.1667H11.6666V15.8334H13.3333V14.1667H14.9999M15.4166 7.50008L10.8333 2.91675V7.50008H15.4166Z" fill="white"/>
</svg>
