<svg width="120" height="120" viewBox="0 0 120 120" fill="none" xmlns="http://www.w3.org/2000/svg">
<circle opacity="0.2" cx="60" cy="60" r="60" fill="#FCA600"/>
<circle cx="60.0001" cy="60" r="32.3077" fill="#FCA600"/>
<path d="M60.0001 65.7692C59.388 65.7692 58.801 65.526 58.3683 65.0932C57.9355 64.6605 57.6924 64.0735 57.6924 63.4615C57.6924 62.1807 58.7193 61.1538 60.0001 61.1538C60.6121 61.1538 61.1991 61.3969 61.6318 61.8297C62.0646 62.2625 62.3077 62.8494 62.3077 63.4615C62.3077 64.0735 62.0646 64.6605 61.6318 65.0932C61.1991 65.526 60.6121 65.7692 60.0001 65.7692ZM66.9231 69.2307V57.6922H53.077V69.2307H66.9231ZM66.9231 55.3845C67.5352 55.3845 68.1221 55.6277 68.5549 56.0604C68.9877 56.4932 69.2308 57.0802 69.2308 57.6922V69.2307C69.2308 69.8427 68.9877 70.4297 68.5549 70.8625C68.1221 71.2953 67.5352 71.5384 66.9231 71.5384H53.077C52.4649 71.5384 51.878 71.2953 51.4452 70.8625C51.0124 70.4297 50.7693 69.8427 50.7693 69.2307V57.6922C50.7693 56.4115 51.7962 55.3845 53.077 55.3845H54.2308V53.0768C54.2308 51.5468 54.8387 50.0793 55.9206 48.9974C57.0025 47.9154 58.47 47.3076 60.0001 47.3076C60.7577 47.3076 61.5079 47.4568 62.2078 47.7468C62.9078 48.0367 63.5438 48.4617 64.0795 48.9974C64.6152 49.5331 65.0402 50.1691 65.3301 50.8691C65.6201 51.569 65.7693 52.3192 65.7693 53.0768V55.3845H66.9231ZM60.0001 49.6153C59.082 49.6153 58.2015 49.98 57.5524 50.6292C56.9032 51.2783 56.5385 52.1588 56.5385 53.0768V55.3845H63.4616V53.0768C63.4616 52.1588 63.0969 51.2783 62.4477 50.6292C61.7986 49.98 60.9181 49.6153 60.0001 49.6153Z" fill="white"/>
</svg>
