<svg width="20" height="20" viewBox="0 0 20 20" fill="none" xmlns="http://www.w3.org/2000/svg">
<g clip-path="url(#clip0_236_3488)">
<path d="M5.83333 9.99992C7.66667 9.99992 9.16667 8.49992 9.16667 6.66659C9.16667 4.83325 7.66667 3.33325 5.83333 3.33325C4 3.33325 2.5 4.83325 2.5 6.66659C2.5 8.49992 4 9.99992 5.83333 9.99992ZM9.16667 16.6666V12.2499C8.25 11.9166 7.08333 11.6666 5.83333 11.6666C2.58333 11.6666 0 13.1666 0 14.9999V16.6666H9.16667ZM18.3333 3.33325H12.5C11.5833 3.33325 10.8333 4.08325 10.8333 4.99992V14.9999C10.8333 15.9166 11.5833 16.6666 12.5 16.6666H18.3333C19.25 16.6666 20 15.9166 20 14.9999V4.99992C20 4.08325 19.25 3.33325 18.3333 3.33325ZM15 14.9999H13.3333V4.99992H15V14.9999Z" fill="white"/>
</g>
<defs>
<clipPath id="clip0_236_3488">
<rect width="20" height="20" fill="white"/>
</clipPath>
</defs>
</svg>
