<svg width="32" height="32" viewBox="0 0 32 32" fill="none" xmlns="http://www.w3.org/2000/svg">
<circle cx="16" cy="16" r="16" fill="#7E2126"/>
<path d="M13.768 20.9431C13.8489 20.9851 13.9397 21.0044 14.0307 20.9988C14.1217 20.9931 14.2094 20.9628 14.2845 20.9111L20.7845 16.4111C20.8509 16.3651 20.9052 16.3036 20.9427 16.2321C20.9802 16.1605 20.9998 16.0809 20.9998 16.0001C20.9998 15.9193 20.9802 15.8397 20.9427 15.7681C20.9052 15.6965 20.8509 15.6351 20.7845 15.5891L14.2845 11.0891C14.2095 11.0372 14.1217 11.0068 14.0307 11.0012C13.9396 10.9956 13.8488 11.015 13.768 11.0573C13.6872 11.0997 13.6195 11.1633 13.5722 11.2413C13.525 11.3194 13.5 11.4089 13.5 11.5001V20.5001C13.5 20.5913 13.525 20.6809 13.5722 20.759C13.6194 20.8371 13.6872 20.9007 13.768 20.9431Z" fill="white"/>
</svg>
