<svg width="424" height="248" viewBox="0 0 424 248" fill="none" xmlns="http://www.w3.org/2000/svg">
<path fill-rule="evenodd" clip-rule="evenodd" d="M12 0C5.37258 0 0 5.37258 0 12V200H164C164 226.51 185.49 248 212 248C238.51 248 260 226.51 260 200H424V12C424 5.37258 418.627 0 412 0H12Z" fill="#E2242E"/>
<g clip-path="url(#clip0_481_344)">
<path d="M218.25 180.039L232 186.914V202.246L229.5 200.996V189.707L219.5 194.707V199.746L217 200.996V194.707L207 189.707V194.141L204.5 192.891V186.914L218.25 180.039ZM218.25 192.539L221.707 190.801L212.664 185.625L208.543 187.695L218.25 192.539ZM224.402 189.473L227.957 187.695L218.25 182.832L215.34 184.297L224.402 189.473ZM214.5 202.246L212 203.496V203.477L204.5 207.227V216.113L212 212.344V215.156L203.25 219.531L192 213.887V200.684L203.25 195.059L214.5 200.684V202.246ZM202 216.113V207.227L194.5 203.477V212.344L202 216.113ZM203.25 205.059L210.457 201.465L203.25 197.852L196.043 201.465L203.25 205.059ZM214.5 205.039L223.25 200.664L232 205.039V215.332L223.25 219.707L214.5 215.332V205.039ZM222 216.289V210.332L217 207.832V213.789L222 216.289ZM229.5 213.789V207.832L224.5 210.332V216.289L229.5 213.789ZM223.25 208.164L227.957 205.801L223.25 203.457L218.543 205.801L223.25 208.164Z" fill="white"/>
</g>
<path d="M256 200C256 211.67 251.364 222.861 243.113 231.113C234.861 239.364 223.67 244 212 244C200.33 244 189.139 239.364 180.887 231.113C172.636 222.861 168 211.67 168 200H169.76C169.76 211.203 174.21 221.947 182.132 229.868C190.053 237.79 200.797 242.24 212 242.24C223.203 242.24 233.947 237.79 241.868 229.868C249.79 221.947 254.24 211.203 254.24 200H256Z" fill="white"/>
<defs>
<clipPath id="clip0_481_344">
<rect width="40" height="40" fill="white" transform="translate(192 180)"/>
</clipPath>
</defs>
</svg>
