<svg xmlns="http://www.w3.org/2000/svg" width="89.449" height="89.453" viewBox="0 0 89.449 89.453">
  <g id="Group_39" data-name="Group 39" transform="translate(0.25 0.25)">
    <path id="Path_12" data-name="Path 12" d="M670.073-238.516c1.059-2.559,2.43-3.481,5.181-3.482h7.636a4.662,4.662,0,0,1,4.708,2.887c.2.46.43.534.865.338,1.028-.462,2.1-.833,3.1-1.348a17.232,17.232,0,0,1,11.719-1.351c3.279.662,6.6,1.093,9.894,1.624.194-.26,0-.418-.091-.574A24.317,24.317,0,0,1,710.7-258.37a40.613,40.613,0,0,1,8.533-17.434c.366-.439.362-.655-.09-1.022a4.3,4.3,0,0,1-1.517-4.968,4.28,4.28,0,0,1,4.16-3.106c.655-.034.7-.3.523-.831-.588-1.784-1.152-3.577-1.721-5.368q-.931-2.936,2.027-3.882a36.235,36.235,0,0,1,7.625-1.574,2.521,2.521,0,0,0,.415-.11H736.9a2.544,2.544,0,0,0,.415.11A36.2,36.2,0,0,1,744.856-295c2.036.642,2.7,1.887,2.076,3.923q-.841,2.735-1.744,5.452c-.177.534-.072.7.511.727a4.456,4.456,0,0,1,4.2,3.059,4.412,4.412,0,0,1-1.55,5.033c-.43.354-.422.561-.078.956a35.374,35.374,0,0,1,4.2,6.043,38.152,38.152,0,0,1,5.062,16.434,22.762,22.762,0,0,1-2.131,11.042c-.183.4-.467.725.26.946a4.427,4.427,0,0,1,3.286,3.768,4.74,4.74,0,0,1-2.05,4.752q-15.6,11.742-31.172,23.513a7.593,7.593,0,0,1-6.884,1.331q-9.921-2.671-19.839-5.357-5.065-1.368-10.128-2.738c-.446-.121-.86-.312-1.077.4a4.593,4.593,0,0,1-4.866,3.606c-2.488.009-4.977-.055-7.462.018-2.576.076-4.417-.91-5.4-3.341ZM733.736-275.8c-2.979,0-5.959.047-8.937-.026a2.8,2.8,0,0,0-2.372,1.1,37.393,37.393,0,0,0-8.819,17.912,20.67,20.67,0,0,0,3.729,17.072,1.971,1.971,0,0,0,1.358.812c4.821.766,9.637,1.569,14.464,2.3,2.019.3,3.752.948,4.705,2.921.286.592.67.25,1.006.061q5.518-3.107,11.032-6.221a3.282,3.282,0,0,0,1.181-1.114,20.7,20.7,0,0,0,2.854-15.8,36.769,36.769,0,0,0-9.185-18.284,2.031,2.031,0,0,0-1.646-.742C739.984-275.784,736.859-275.8,733.736-275.8ZM719.461-230.07h13.276a6.528,6.528,0,0,0,.866-.025,1.6,1.6,0,0,0,1.509-1.521,1.542,1.542,0,0,0-1.334-1.658c-.9-.2-1.817-.339-2.729-.486-9.582-1.545-19.169-3.06-28.744-4.646-2.64-.437-5.221-.64-7.749.448-1.913.822-3.811,1.678-5.738,2.465a1.191,1.191,0,0,0-.855,1.3c.028,4.281.013,8.561.015,12.842,0,1.713,0,1.714,1.671,2.166q14.9,4.033,29.792,8.075a4.915,4.915,0,0,0,4.558-.871q15.291-11.57,30.611-23.1c1.2-.906,1.533-1.847.955-2.681-.595-.858-1.43-.894-2.769-.137q-7.173,4.058-14.351,8.107a3.59,3.59,0,0,0-1.17,1A4.4,4.4,0,0,1,734.131-227a3.619,3.619,0,0,0-1.4.433c-2.842,1.612-5.7,3.2-8.533,4.825a4.649,4.649,0,0,1-5.153-.116c-2.35-1.478-4.721-2.922-7.065-4.41a3.809,3.809,0,0,0-2.195-.641c-1.386.023-2.774-.039-4.161-.089a1.509,1.509,0,0,1-1.573-1.506,1.532,1.532,0,0,1,1.609-1.561c.231-.011.462,0,.694,0Zm-34.682,3.1c0-3.353.005-6.706,0-10.06,0-1.272-.514-1.775-1.8-1.778q-4.032-.011-8.065,0c-1.268,0-1.8.5-1.808,1.788q-.026,9.973,0,19.946c0,1.282.546,1.764,1.824,1.767q3.988.008,7.978,0c1.418,0,1.868-.451,1.87-1.864Q684.784-222.07,684.78-226.97Zm49-57.941c2.343,0,4.687-.019,7.029.013a.97.97,0,0,0,1.117-.8c.543-1.829,1.114-3.651,1.728-5.457.224-.66.057-.926-.6-1.109a33.654,33.654,0,0,0-18.734.046c-.639.184-.65.464-.471,1,.606,1.809,1.205,3.622,1.737,5.454a1.058,1.058,0,0,0,1.246.867C729.147-284.933,731.461-284.911,733.775-284.911Zm.087,3.2c-3.934,0-7.868-.008-11.8.005-.952,0-1.462.5-1.468,1.336a1.284,1.284,0,0,0,1.449,1.361q11.716.017,23.431.011a1.358,1.358,0,0,0,1.347-.77c.482-1-.183-1.933-1.414-1.938C741.557-281.723,737.71-281.715,733.862-281.716Zm-16.587,54.867-.062.144c1.343.814,2.683,1.632,4.031,2.438a.8.8,0,0,0,.756.052c1.531-.811,3.049-1.648,4.571-2.477l-.081-.157Z" transform="translate(-670.073 296.664)" stroke="#000" stroke-width="0.5"/>
    <path id="Path_13" data-name="Path 13" d="M999.007-131.794c0-.983-.06-1.971.019-2.947a1.316,1.316,0,0,0-1.055-1.556,7.423,7.423,0,0,1-3.916-10.652,7.124,7.124,0,0,1,4.1-3.42,1.427,1.427,0,0,0,1.033-.922,1.4,1.4,0,0,1,1.415-.949,1.383,1.383,0,0,1,1.417.945,1.476,1.476,0,0,0,1.109.949,7.572,7.572,0,0,1,4.982,6.607,1.706,1.706,0,0,1-1.46,2c-.946.066-1.647-.625-1.723-1.76a4.216,4.216,0,0,0-2.089-3.495c-.423-.262-.629-.205-.628.333.006,2.429.016,4.857-.006,7.286-.006.6.4.684.809.831a7.509,7.509,0,0,1,5.107,6.864,7.485,7.485,0,0,1-5,7.289,1.519,1.519,0,0,0-1.1.962,1.406,1.406,0,0,1-1.423.946,1.424,1.424,0,0,1-1.413-.964,1.462,1.462,0,0,0-1.025-.926,7.406,7.406,0,0,1-5-6.116,3.815,3.815,0,0,1-.025-1.122,1.449,1.449,0,0,1,1.348-1.359,1.474,1.474,0,0,1,1.671,1.066,6.131,6.131,0,0,1,.165,1.023,4.186,4.186,0,0,0,1.991,3.1c.467.3.723.294.709-.373C998.988-129.365,999.006-130.58,999.007-131.794Zm0-11.366c0-1.124-.016-2.247.006-3.371.012-.654-.177-.761-.742-.419a4.367,4.367,0,0,0,.109,7.379c.532.3.64.134.632-.391C999-141.028,999.009-142.094,999.008-143.16Zm3.2,11.7c0,1.1.015,2.191-.006,3.286-.012.592.15.73.69.413a4.36,4.36,0,0,0,.033-7.339c-.588-.36-.739-.183-.725.44C1002.225-133.6,1002.208-132.53,1002.209-131.463Z" transform="translate(-936.91 177.358)" stroke="#000" stroke-width="0.5"/>
    <path id="Path_14" data-name="Path 14" d="M706.713,137.191c.547,0,1.1-.037,1.641.009a1.538,1.538,0,0,1,1.44,1.467,1.476,1.476,0,0,1-1.2,1.571,9.942,9.942,0,0,1-3.691,0,1.486,1.486,0,0,1-1.175-1.675,1.505,1.505,0,0,1,1.434-1.369c.515-.04,1.037-.008,1.555-.008Z" transform="translate(-697.864 -61.723)" stroke="#000" stroke-width="0.5"/>
    <path id="Path_15" data-name="Path 15" d="M706.694,54.636c-.52,0-1.044.034-1.56-.008a1.534,1.534,0,0,1-.241-3.016,9.338,9.338,0,0,1,3.79.015,1.422,1.422,0,0,1,1.118,1.557,1.53,1.53,0,0,1-1.373,1.446,1.242,1.242,0,0,1-.173.011h-1.561Z" transform="translate(-697.877 9.113)" stroke="#000" stroke-width="0.5"/>
  </g>
</svg>
